<?xml version="1.0" encoding="UTF-8"?>
<svg width="12px" height="20px" viewBox="0 0 12 20" version="1.1" xmlns="http://www.w3.org/2000/svg" xmlns:xlink="http://www.w3.org/1999/xlink">
    <!-- Generator: Sketch 59.1 (86144) - https://sketch.com -->
    <title>路径</title>
    <desc>Created with Sketch.</desc>
    <g id="页面-1" stroke="none" stroke-width="1" fill="none" fill-rule="evenodd">
        <g id="25个人设置" transform="translate(-16.000000, -56.000000)" fill="#202020" fill-rule="nonzero">
            <g id="导航栏" transform="translate(16.000000, 54.000000)">
                <g id="后退" transform="translate(0.000000, 2.000000)">
                    <path d="M0.253507217,10.6038728 L9.52247305,19.7498442 C9.74112084,19.9655906 10.059807,20.0498492 10.3584854,19.9708806 C10.6571639,19.8919119 10.8904583,19.6617131 10.970489,19.366998 C11.0505196,19.0722828 10.9651279,18.7578255 10.7464801,18.5420791 L2.08964144,10.0001123 L10.7464801,1.45790143 C11.0844803,1.12438631 11.0844803,0.583651461 10.7464801,0.25013634 C10.4084799,-0.0833787801 9.86047326,-0.0833787801 9.52247305,0.25013634 L0.253507217,9.39635175 C0.084337523,9.56327665 0,9.78145042 0,10.0003563 C0,10.2192622 0.0845848471,10.4369479 0.253507217,10.6038728 L0.253507217,10.6038728 Z" id="路径"></path>
                </g>
            </g>
        </g>
    </g>
</svg>