<svg width="35px" height="35px" viewBox="0 0 40 40" version="1.1" xmlns="http://www.w3.org/2000/svg">
    <g stroke="none" stroke-width="1" fill="none" fill-rule="evenodd">
        <g transform="translate(-168.000000, -373.000000)" fill="#9F9F9F" fill-rule="nonzero">
        <g transform="translate(118.000000, 356.000000)">
            <g transform="translate(50.000000, 17.000000)">
            <path d="M20,12.3448276 C19.2001393,12.3448276 18.5517241,11.6964124 18.5517241,10.8965517 L18.5517241,3.44827586 C18.5517241,2.64841519 19.2001393,2 20,2 C20.7998607,2 21.4482759,2.64841519 21.4482759,3.44827586 L21.4482759,10.8965517 C21.4482759,11.6964124 20.7998607,12.3448276 20,12.3448276 L20,12.3448276 Z M20,38 C19.6158934,38 19.2475187,37.8474142 18.9759143,37.5758098 C18.7043099,37.3042054 18.5517241,36.9358308 18.5517241,36.5517241 L18.5517241,29.1034483 C18.5517241,28.3035876 19.2001393,27.6551724 20,27.6551724 C20.7998607,27.6551724 21.4482759,28.3035876 21.4482759,29.1034483 L21.4482759,36.5517241 C21.4482759,37.3515848 20.7998607,38 20,38 L20,38 Z M25.4130345,14.5869655 C25.1414107,14.3153922 24.9888098,13.9470294 24.9888098,13.562931 C24.9888098,13.1788327 25.1414107,12.8104699 25.4130345,12.5388966 L30.6797931,7.27213793 C30.9513664,7.00051414 31.3197292,6.84791324 31.7038276,6.84791324 C32.087926,6.84791324 32.4562887,7.00051414 32.7278621,7.27213793 C32.9994859,7.54371127 33.1520868,7.91207404 33.1520868,8.29617241 C33.1520868,8.68027079 32.9994859,9.04863356 32.7278621,9.3202069 L27.4611034,14.5869655 C27.1895301,14.8585893 26.8211673,15.0111902 26.437069,15.0111902 C26.0529706,15.0111902 25.6846078,14.8585893 25.4130345,14.5869655 L25.4130345,14.5869655 Z M7.27213793,32.7278621 C7.00051414,32.4562887 6.84791324,32.087926 6.84791324,31.7038276 C6.84791324,31.3197292 7.00051414,30.9513664 7.27213793,30.6797931 L12.5388966,25.4130345 C12.8104699,25.1414107 13.1788327,24.9888098 13.562931,24.9888098 C13.9470294,24.9888098 14.3153922,25.1414107 14.5869655,25.4130345 C14.8585893,25.6846078 15.0111902,26.0529706 15.0111902,26.437069 C15.0111902,26.8211673 14.8585893,27.1895301 14.5869655,27.4611034 L9.3202069,32.7278621 C9.04863356,32.9994859 8.68027079,33.1520868 8.29617241,33.1520868 C7.91207404,33.1520868 7.54371127,32.9994859 7.27213793,32.7278621 L7.27213793,32.7278621 Z M27.6551724,20 C27.6551724,19.2001393 28.3035876,18.5517241 29.1034483,18.5517241 L36.5517241,18.5517241 C37.3515848,18.5517241 38,19.2001393 38,20 C38,20.7998607 37.3515848,21.4482759 36.5517241,21.4482759 L29.1034483,21.4482759 C28.3035876,21.4482759 27.6551724,20.7998607 27.6551724,20 L27.6551724,20 Z M2,20 C2,19.2001393 2.64841519,18.5517241 3.44827586,18.5517241 L10.8965517,18.5517241 C11.6964124,18.5517241 12.3448276,19.2001393 12.3448276,20 C12.3448276,20.7998607 11.6964124,21.4482759 10.8965517,21.4482759 L3.44827586,21.4482759 C2.64841519,21.4482759 2,20.7998607 2,20 Z M25.4130345,25.4130345 C25.6846078,25.1414107 26.0529706,24.9888098 26.437069,24.9888098 C26.8211673,24.9888098 27.1895301,25.1414107 27.4611034,25.4130345 L32.7278621,30.6797931 C32.9994859,30.9513664 33.1520868,31.3197292 33.1520868,31.7038276 C33.1520868,32.087926 32.9994859,32.4562887 32.7278621,32.7278621 C32.4562887,32.9994859 32.087926,33.1520868 31.7038276,33.1520868 C31.3197292,33.1520868 30.9513664,32.9994859 30.6797931,32.7278621 L25.4130345,27.4611034 C25.1414107,27.1895301 24.9888098,26.8211673 24.9888098,26.437069 C24.9888098,26.0529706 25.1414107,25.6846078 25.4130345,25.4130345 L25.4130345,25.4130345 Z M7.27213793,7.27213793 C7.54371127,7.00051414 7.91207404,6.84791324 8.29617241,6.84791324 C8.68027079,6.84791324 9.04863356,7.00051414 9.3202069,7.27213793 L14.5869655,12.5388966 C14.8585893,12.8104699 15.0111902,13.1788327 15.0111902,13.562931 C15.0111902,13.9470294 14.8585893,14.3153922 14.5869655,14.5869655 C14.3153922,14.8585893 13.9470294,15.0111902 13.562931,15.0111902 C13.1788327,15.0111902 12.8104699,14.8585893 12.5388966,14.5869655 L7.27213793,9.3202069 C7.00051414,9.04863356 6.84791324,8.68027079 6.84791324,8.29617241 C6.84791324,7.91207404 7.00051414,7.54371127 7.27213793,7.27213793 Z"></path>
            </g>
        </g>
        </g>
    </g>
</svg>