<?xml version="1.0" encoding="UTF-8"?>
<svg width="16px" height="15.9999987px" viewBox="0 0 16 15.9999987" version="1.1" xmlns="http://www.w3.org/2000/svg" xmlns:xlink="http://www.w3.org/1999/xlink">
    <title>zhushi</title>
    <g id="页面-1" stroke="none" stroke-width="1" fill="none" fill-rule="evenodd">
        <g id="网络诊断_检测完成" transform="translate(-32, -183)" fill-rule="nonzero">
            <g id="编组-2" transform="translate(16, 104)">
                <g id="laba-" transform="translate(16, 79)">
                    <g id="zhushi" transform="translate(0, 0)">
                        <path d="M8.00000115,15.9999702 C5.87700538,16.0057789 3.83990765,15.1620421 2.3427802,13.6567999 C0.837756505,12.1597325 -0.00582375748,10.1227987 3.0272035e-05,8.00000047 C-0.00582493173,5.87699561 0.837919156,3.83988067 2.34320127,2.34278 C3.84026878,0.837756423 5.87720279,-0.00582376947 8.00000115,3.02658336e-05 C10.1228696,-0.0057593482 12.1598296,0.837983236 13.656801,2.34320106 C15.1619394,3.84022563 16.0056677,5.87715073 15.9999709,8.00000047 C16.0057147,10.1228595 15.1619792,12.159802 13.656801,13.6567999 C12.1598296,15.1620177 10.1228696,16.0057603 8.00000115,15.9999702 Z" id="形状" fill="#FE2121"></path>
                        <path d="M7.67874039,6.91537707 C7.70000453,6.91520659 7.72121116,6.91761001 7.74189782,6.92253492 C7.78362075,6.93483508 7.81714321,6.96601876 7.83242344,7.00674482 C7.86661031,7.11313826 7.84732257,7.22949194 7.78063436,7.31916351 L6.48674928,9.5233574 C6.11006025,10.1114977 5.81355019,10.7472809 5.60507165,11.4138695 C5.53670696,11.6093767 5.55812432,11.8250911 5.66359752,12.0033387 C5.76824334,12.1817042 5.94614007,12.3049227 6.14990968,12.3401783 L6.2656983,12.3401783 C7.38689164,12.3403051 8.43652922,11.7893556 9.0732563,10.8665052 C9.10212937,10.7739706 9.06226014,10.6738585 8.97767806,10.626507 L8.96799391,10.626507 C8.79810645,10.7057355 8.64468858,10.8162992 8.51578676,10.9523992 L8.50105004,10.9650307 L8.37852464,11.069451 C8.17923662,11.2797252 7.92728878,11.4328129 7.64884587,11.5128161 C7.63468017,11.5128834 7.62055329,11.5113294 7.60674093,11.5081845 L7.60674093,11.512395 C7.51242584,11.4892373 7.49011023,11.3797645 7.50863639,11.2875546 C7.59247502,11.0341292 7.710473,10.793317 7.85937062,10.5717705 L9.22988671,8.11031542 C9.56377895,7.51284625 9.65851508,7.03916561 9.51072671,6.70274711 C9.40745452,6.48376414 9.20577332,6.32730084 8.96799391,6.28169766 C8.82908266,6.25628438 8.68816117,6.24346052 8.54694443,6.24338214 C8.00687451,6.24400589 7.48349625,6.43060808 7.06485024,6.77179922 L7.0059033,6.81643046 C6.78064183,6.98485023 6.25348786,7.38316303 6.20885662,7.60758238 C6.19130992,7.69645407 6.23812688,7.78552902 6.32127683,7.82147551 C6.32631135,7.82207996 6.3314001,7.82207996 6.33643461,7.82147551 C6.42611816,7.82147551 6.60127475,7.66400301 6.80379955,7.4816886 L6.93011439,7.36842629 C7.12885532,7.1458806 7.38978078,6.98806397 7.67916144,6.91537707 L7.67874039,6.91537707 Z" id="路径" fill="#FFFFFF"></path>
                        <path d="M9.56041055,3.63119133 C9.07999802,3.63331369 8.6741697,3.98818918 8.6079966,4.46402716 C8.56946739,4.67798126 8.62467022,4.89817919 8.75957442,5.06865417 C8.89461018,5.23892566 9.09624163,5.34303801 9.31325451,5.35454676 C9.3574744,5.36074848 9.40207454,5.36384375 9.44672718,5.36381012 C9.65615697,5.363449 9.85973913,5.29470122 10.0265123,5.16802184 C10.2293693,5.01269506 10.3620785,4.78302936 10.3953517,4.52971088 C10.4293887,4.31450541 10.3709786,4.09493218 10.2345108,3.92508385 C10.097997,3.75543837 9.8961081,3.65143501 9.67872546,3.63877022 C9.6397474,3.6340244 9.60051856,3.63163411 9.56125265,3.63161239 L9.56041055,3.63119133 Z" id="路径" fill="#FFFFFF"></path>
                    </g>
                </g>
            </g>
        </g>
    </g>
</svg>